<svg width="86" height="22" viewBox="0 0 86 22" fill="none" xmlns="http://www.w3.org/2000/svg">
<g clip-path="url(#clip0_24_4)">
<path d="M17.2 0.2C16.6 0.2 16.1 0.4 15.6 0.7C15.1 1 14.7 1.5 14.5 2L10.1 13.5L5.69998 2.1C5.49998 1.5 5.09998 1 4.59998 0.7C4.09998 0.4 3.49998 0.2 2.89998 0.2C2.49998 0.2 2.19998 0.2 1.79998 0.4C1.39998 0.5 1.09998 0.7 0.899976 1C0.599976 1.3 0.399976 1.6 0.299976 1.9C0.199976 2.2 0.0999756 2.6 0.0999756 3C0.0999756 3.4 0.199976 3.9 0.399976 4.3L6.89998 19.7C7.09998 20.3 7.49998 20.9 8.09998 21.2C8.59998 21.6 9.29998 21.8 9.99998 21.8H10.3C11 21.8 11.6 21.6 12.2 21.2C12.7 20.8 13.2 20.3 13.4 19.6L19.9 4C20.1 3.6 20.2 3.2 20.2 2.8C20.2 2.4 20.2 2.1 20 1.7C19.9 1.4 19.7 1 19.4 0.8C19.1 0.5 18.8 0.3 18.5 0.2C18.1 0.1 17.7 0 17.4 0L17.2 0.2Z" fill="white"/>
<path d="M60.5 0.199951C59.4 0.199951 58.6 0.699951 57.9 1.79995L53.5 8.09995L49.2 1.89995C48.9 1.39995 48.5 0.999951 48.1 0.699951C47.6 0.399951 47.1 0.299951 46.5 0.199951C45.8 0.199951 45 0.499951 44.5 0.999951C44 1.49995 43.7 2.19995 43.6 2.99995C43.6 3.69995 43.8 4.39995 44.3 4.89995L50.6 13.5V18.9C50.6 19.6 50.9 20.4 51.4 20.9C51.9 21.4 52.7 21.7 53.4 21.7C54.1 21.7 54.9 21.4 55.4 20.9C55.9 20.4 56.2 19.6 56.2 18.9V13.4L62.5 4.89995C62.9 4.39995 63.2 3.69995 63.2 2.99995C63.2 2.59995 63.2 2.29995 63 1.89995C62.9 1.59995 62.7 1.19995 62.4 0.999951C62.1 0.699951 61.8 0.499951 61.5 0.399951C61.2 0.299951 60.8 0.199951 60.4 0.299951L60.5 0.199951Z" fill="white"/>
<path d="M31.9 0C29.7 0 27.6 0.6 25.8 1.9C24 3.1 22.6 4.8 21.7 6.8C20.9 8.8 20.6 11 21.1 13.2C21.5 15.3 22.6 17.3 24.1 18.8C25.6 20.3 27.6 21.4 29.7 21.8C31.8 22.2 34 22 36.1 21.2C38.1 20.4 39.8 19 41 17.1C42.2 15.3 42.9 13.2 42.9 11C42.9 8.8 41.7 5.3 39.7 3.2C37.7 1.2 34.9 0 31.9 0ZM31.9 16.4C30.8 16.4 29.8 16.1 28.9 15.5C28 14.9 27.3 14.1 26.9 13.1C26.5 12.1 26.4 11 26.6 10C26.8 8.9 27.3 8 28.1 7.2C28.8 6.5 29.8 5.9 30.9 5.7C32 5.5 33 5.6 34 6C35 6.4 35.8 7.1 36.4 8C37 8.9 37.3 9.9 37.3 11C37.3 12.1 36.7 13.8 35.7 14.8C34.7 15.8 33.3 16.4 31.9 16.4Z" fill="white"/>
<path d="M74.8001 0C72.6001 0 70.5001 0.7 68.7001 1.9C66.9001 3.1 65.5001 4.8 64.6001 6.8C63.8001 8.8 63.5001 11 64.0001 13.2C64.4001 15.3 65.5001 17.3 67.0001 18.8C68.5001 20.3 70.5001 21.4 72.6001 21.8C74.7001 22.2 76.9001 22 79.0001 21.2C81.0001 20.4 82.7001 19 83.9001 17.1C85.1001 15.3 85.8001 13.2 85.8001 11C85.8001 8.8 84.6001 5.3 82.6001 3.2C80.6001 1.2 77.8001 0 74.8001 0ZM74.8001 16.4C73.7001 16.4 72.7001 16.1 71.8001 15.5C70.9001 14.9 70.2001 14.1 69.8001 13.1C69.4001 12.1 69.3001 11 69.5001 10C69.7001 8.9 70.2001 8 71.0001 7.2C71.7001 6.5 72.7001 5.9 73.8001 5.7C74.9001 5.5 75.9001 5.6 76.9001 6C77.9001 6.4 78.7001 7.1 79.3001 8C79.9001 8.9 80.2001 9.9 80.2001 11C80.2001 12.1 79.6001 13.8 78.6001 14.8C77.6001 15.8 76.2001 16.4 74.8001 16.4Z" fill="white"/>
</g>
<defs>
<clipPath id="clip0_24_4">
<rect width="86" height="22" fill="white"/>
</clipPath>
</defs>
</svg>
