<svg width="2560" height="420" viewBox="0 0 2560 420" fill="none" xmlns="http://www.w3.org/2000/svg">
<g clip-path="url(#clip0)">
<path d="M228.778 -364.298C503.008 -445.767 744.685 -418.459 1006.98 -356.803C1231.43 -304.049 1448.66 -222.954 1699.95 -215.985C1950.48 -209.033 2169.85 -247.669 2390.7 -193.73C2686.83 -121.414 2702.42 15.5087 2571.81 117.602C2390.75 259.159 2028.45 271.449 1756.19 201.335C1530.88 143.314 1303.68 78.4846 955.123 104.01C696.933 122.913 483.805 230.799 213.846 176.308C-92.3011 114.509 -278.442 -213.614 228.778 -364.298Z" fill="#2A2A2A" fill-opacity="0.4"/>
<path d="M2873.54 134.783C2919.34 95.8783 3007.64 115.916 3048.01 70.3355C3135.91 -28.9002 2972.01 -204.159 2830.88 -171.086C2759.09 -154.271 2710.02 -109.902 2631.33 -102.101C2551.47 -94.1865 2462.91 -137.71 2376.19 -148.832C2216.82 -169.269 2122.41 -91.4892 1943.41 -140.92C1530.59 -254.914 1475.75 -126.11 1735.13 31.5133C1952.16 163.406 2107.93 31.1226 2388.87 196.51C2845.84 465.53 2773.9 219.406 2873.54 134.783Z" fill="#2A2A2A" fill-opacity="0.46"/>
<path d="M-186.794 -76.2366C-123.424 -183.757 -30.6595 -202.652 81.952 -198.664C178.308 -195.253 282.762 -168.967 371.241 -205.012C459.45 -240.948 520.024 -306.648 615.603 -301.74C743.748 -295.159 800.08 -192.936 793.483 -93.2875C784.334 44.8743 665.1 113.942 545.936 105.116C447.324 97.8147 342.891 87.912 255.608 150.99C175.218 209.087 122.06 337.215 9.50753 339.967C-118.146 343.087 -304.003 122.62 -186.794 -76.2366Z" fill="url(#paint0_linear)"/>
<path d="M2571.96 317.024C2374.66 374.291 2043.75 280.575 1778.42 269.376C1472.73 256.47 1219.9 286.413 912.334 288.693C613.784 290.904 150.933 98.1489 524.027 -40.7195C670.967 -95.4112 806.827 -128.766 912.691 -207.388C1030.53 -294.912 1112.76 -378.513 1369.39 -379.383C2017.45 -381.578 3112.46 160.136 2571.96 317.024Z" fill="url(#paint1_linear)"/>
</g>
<defs>
<linearGradient id="paint0_linear" x1="285" y1="-302" x2="285" y2="340" gradientUnits="userSpaceOnUse">
<stop stop-color="#2A2A2A"/>
<stop offset="1" stop-color="#2A2A2A" stop-opacity="0"/>
</linearGradient>
<linearGradient id="paint1_linear" x1="1647.42" y1="-354.044" x2="1495.29" y2="420.601" gradientUnits="userSpaceOnUse">
<stop stop-color="#2A2A2A"/>
<stop offset="1" stop-color="#2A2A2A" stop-opacity="0"/>
</linearGradient>
<clipPath id="clip0">
<rect width="2560" height="420" fill="white"/>
</clipPath>
</defs>
</svg>
